<?xml version="1.0" encoding="UTF-8"?>
<svg id="Layer_1" data-name="Layer 1" xmlns="http://www.w3.org/2000/svg" xmlns:xlink="http://www.w3.org/1999/xlink" viewBox="0 0 595.28 841.89">
  <defs>
    <style>
      .cls-1 {
        fill: url(#linear-gradient-2);
      }

      .cls-2 {
        fill: url(#linear-gradient-4);
      }

      .cls-3 {
        fill: url(#linear-gradient-3);
      }

      .cls-4 {
        fill: url(#linear-gradient-5);
      }

      .cls-5 {
        fill: url(#linear-gradient-8);
      }

      .cls-6 {
        fill: url(#linear-gradient-7);
      }

      .cls-7 {
        fill: #f9fbfe;
      }

      .cls-8 {
        fill: url(#linear-gradient-6);
      }

      .cls-9 {
        fill: url(#linear-gradient);
      }
    </style>
    <linearGradient id="linear-gradient" x1="383.88" y1="399.2" x2="435.18" y2="399.2" gradientUnits="userSpaceOnUse">
      <stop offset="0" stop-color="#fff" stop-opacity="0"/>
      <stop offset=".2" stop-color="#29396d" stop-opacity=".5"/>
      <stop offset="1" stop-color="#29396d"/>
    </linearGradient>
    <linearGradient id="linear-gradient-2" x1="184.63" y1="388.52" x2="240.55" y2="485.37" gradientUnits="userSpaceOnUse">
      <stop offset="0" stop-color="#81c9ca" stop-opacity=".98"/>
      <stop offset="1" stop-color="#79c7c7"/>
    </linearGradient>
    <linearGradient id="linear-gradient-3" x1="347.32" y1="451.51" x2="315.33" y2="396.11" gradientUnits="userSpaceOnUse">
      <stop offset="0" stop-color="#fff" stop-opacity="0"/>
      <stop offset=".2" stop-color="#344072" stop-opacity=".5"/>
      <stop offset="1" stop-color="#29396d"/>
    </linearGradient>
    <linearGradient id="linear-gradient-4" x1="245.94" y1="497.9" x2="292.18" y2="471.2" gradientUnits="userSpaceOnUse">
      <stop offset="0" stop-color="#fff" stop-opacity=".58"/>
      <stop offset=".55" stop-color="#82caca" stop-opacity=".8"/>
      <stop offset="1" stop-color="#79c7c7"/>
    </linearGradient>
    <linearGradient id="linear-gradient-5" x1="172.77" y1="399.02" x2="217.68" y2="399.02" gradientUnits="userSpaceOnUse">
      <stop offset="0" stop-color="#fff" stop-opacity="0"/>
      <stop offset=".29" stop-color="#29396d" stop-opacity=".51"/>
      <stop offset="1" stop-color="#29396d"/>
    </linearGradient>
    <linearGradient id="linear-gradient-6" x1="206.25" y1="440.26" x2="121.9" y2="440.26" gradientUnits="userSpaceOnUse">
      <stop offset="0" stop-color="#fff" stop-opacity="0"/>
      <stop offset=".19" stop-color="#313f71" stop-opacity=".5"/>
      <stop offset="1" stop-color="#29396d"/>
    </linearGradient>
    <linearGradient id="linear-gradient-7" x1="136.02" y1="449.96" x2="105.34" y2="396.82" gradientUnits="userSpaceOnUse">
      <stop offset="0" stop-color="#fff" stop-opacity="0"/>
      <stop offset=".22" stop-color="#313f71" stop-opacity=".5"/>
      <stop offset=".99" stop-color="#29396d"/>
    </linearGradient>
    <linearGradient id="linear-gradient-8" x1="286.36" y1="494.55" x2="388.52" y2="392.39" xlink:href="#linear-gradient"/>
  </defs>
  <polyline class="cls-9" points="416.06 381.8 403.41 381.68 401.65 380.04 383.88 379.92 421.15 418.49 429.18 409.7 406.52 385.49 416.12 385.47 433.97 404.41 435.18 403.19"/>
  <polygon class="cls-7" points="472.8 380.09 515.16 422.33 440.08 500.43 386.9 500.43 466.72 423.54 425.25 380.25 472.8 380.09"/>
  <polygon class="cls-1" points="247.91 380 289.4 422.41 214.33 500.51 164.07 500.51 240.97 423.62 199.09 380.17 247.91 380"/>
  <polygon class="cls-3" points="332.91 385.96 297.24 422.41 333.11 459.72 357.44 435.38 345.68 423.62 357.44 411.41 332.91 385.96 332.91 385.96"/>
  <polygon class="cls-2" points="292.31 471.43 265.17 500.31 247.4 500.43 284.31 462.23 292.31 471.43"/>
  <polygon class="cls-4" points="217.68 408.91 190.54 380.04 172.77 379.92 209.68 418.12 217.68 408.91"/>
  <polygon class="cls-8" points="164 500.43 187.8 477.5 170.61 459.38 206.25 422.15 164.65 380.09 129.58 380.09 122.48 386.92 157.81 423.36 121.9 458.11 164 500.43"/>
  <polyline class="cls-6" points="122.48 386.92 87.23 422.15 121.9 458.11 146.8 434.26 135.66 423.54 146.8 411.92"/>
  <polygon class="cls-5" points="376.14 380 417.64 422.41 342.57 500.51 292.31 500.51 369.21 423.62 332.91 385.96 338.74 380 376.14 380"/>
</svg>