<?xml version="1.0" encoding="UTF-8"?>
<svg id="Layer_1" data-name="Layer 1" xmlns="http://www.w3.org/2000/svg" xmlns:xlink="http://www.w3.org/1999/xlink" viewBox="0 0 595.28 841.89">
  <defs>
    <style>
      .cls-1 {
        fill: url(#linear-gradient-15);
      }

      .cls-2 {
        fill: url(#linear-gradient-13);
      }

      .cls-3 {
        fill: url(#linear-gradient-2);
      }

      .cls-4 {
        fill: url(#linear-gradient-10);
      }

      .cls-5 {
        fill: url(#linear-gradient-12);
      }

      .cls-6 {
        font-size: 17.69px;
      }

      .cls-6, .cls-7 {
        font-family: MyriadArabic-Regular, 'Myriad Arabic';
      }

      .cls-6, .cls-8 {
        fill: #29396d;
      }

      .cls-9 {
        fill: url(#linear-gradient-4);
      }

      .cls-10 {
        fill: url(#linear-gradient-3);
      }

      .cls-11 {
        fill: url(#linear-gradient-5);
      }

      .cls-12 {
        fill: url(#linear-gradient-8);
      }

      .cls-7 {
        font-size: 17.8px;
      }

      .cls-7, .cls-13 {
        fill: #79c7c7;
      }

      .cls-14 {
        fill: url(#linear-gradient-14);
      }

      .cls-15 {
        fill: url(#linear-gradient-7);
      }

      .cls-16 {
        fill: url(#linear-gradient-9);
      }

      .cls-17 {
        fill: url(#linear-gradient-11);
      }

      .cls-18 {
        fill: #6b6e79;
      }

      .cls-19 {
        fill: #f9fbfe;
      }

      .cls-20 {
        fill: url(#linear-gradient-6);
      }

      .cls-13 {
        font-size: 55.39px;
      }

      .cls-13, .cls-8 {
        font-family: MyriadArabic-Black, 'Myriad Arabic';
        font-weight: 800;
      }

      .cls-21 {
        fill: url(#linear-gradient-16);
      }

      .cls-22 {
        fill: url(#linear-gradient);
      }

      .cls-8 {
        font-size: 55.03px;
      }
    </style>
    <linearGradient id="linear-gradient" x1="379.55" y1="527.82" x2="430.52" y2="527.82" gradientUnits="userSpaceOnUse">
      <stop offset="0" stop-color="#fff" stop-opacity="0"/>
      <stop offset=".2" stop-color="#29396d" stop-opacity=".5"/>
      <stop offset="1" stop-color="#29396d"/>
    </linearGradient>
    <linearGradient id="linear-gradient-2" x1="181.58" y1="517.21" x2="237.14" y2="613.44" gradientUnits="userSpaceOnUse">
      <stop offset="0" stop-color="#81c9ca" stop-opacity=".98"/>
      <stop offset="1" stop-color="#79c7c7"/>
    </linearGradient>
    <linearGradient id="linear-gradient-3" x1="343.23" y1="579.79" x2="311.45" y2="524.75" gradientUnits="userSpaceOnUse">
      <stop offset="0" stop-color="#fff" stop-opacity="0"/>
      <stop offset=".2" stop-color="#344072" stop-opacity=".5"/>
      <stop offset="1" stop-color="#29396d"/>
    </linearGradient>
    <linearGradient id="linear-gradient-4" x1="242.5" y1="625.88" x2="288.44" y2="599.36" gradientUnits="userSpaceOnUse">
      <stop offset="0" stop-color="#fff" stop-opacity=".58"/>
      <stop offset=".55" stop-color="#82caca" stop-opacity=".8"/>
      <stop offset="1" stop-color="#79c7c7"/>
    </linearGradient>
    <linearGradient id="linear-gradient-5" x1="169.8" y1="527.63" x2="214.42" y2="527.63" gradientUnits="userSpaceOnUse">
      <stop offset="0" stop-color="#fff" stop-opacity="0"/>
      <stop offset=".29" stop-color="#29396d" stop-opacity=".51"/>
      <stop offset="1" stop-color="#29396d"/>
    </linearGradient>
    <linearGradient id="linear-gradient-6" x1="203.06" y1="568.61" x2="119.26" y2="568.61" gradientUnits="userSpaceOnUse">
      <stop offset="0" stop-color="#fff" stop-opacity="0"/>
      <stop offset=".19" stop-color="#313f71" stop-opacity=".5"/>
      <stop offset="1" stop-color="#29396d"/>
    </linearGradient>
    <linearGradient id="linear-gradient-7" x1="133.29" y1="578.25" x2="102.81" y2="525.45" gradientUnits="userSpaceOnUse">
      <stop offset="0" stop-color="#fff" stop-opacity="0"/>
      <stop offset=".22" stop-color="#313f71" stop-opacity=".5"/>
      <stop offset=".99" stop-color="#29396d"/>
    </linearGradient>
    <linearGradient id="linear-gradient-8" x1="282.66" y1="622.56" x2="384.17" y2="521.05" xlink:href="#linear-gradient"/>
    <linearGradient id="linear-gradient-9" x1="377.77" y1="133.82" x2="429.07" y2="133.82" xlink:href="#linear-gradient"/>
    <linearGradient id="linear-gradient-10" x1="178.52" y1="123.14" x2="234.44" y2="219.99" xlink:href="#linear-gradient-2"/>
    <linearGradient id="linear-gradient-11" x1="341.21" y1="186.13" x2="309.23" y2="130.73" xlink:href="#linear-gradient-3"/>
    <linearGradient id="linear-gradient-12" x1="239.83" y1="232.52" x2="286.07" y2="205.82" xlink:href="#linear-gradient-4"/>
    <linearGradient id="linear-gradient-13" x1="166.66" y1="133.64" x2="211.57" y2="133.64" xlink:href="#linear-gradient-5"/>
    <linearGradient id="linear-gradient-14" x1="200.14" y1="174.88" x2="115.79" y2="174.88" xlink:href="#linear-gradient-6"/>
    <linearGradient id="linear-gradient-15" x1="129.91" y1="184.58" x2="99.23" y2="131.44" xlink:href="#linear-gradient-7"/>
    <linearGradient id="linear-gradient-16" x1="280.25" y1="229.18" x2="382.42" y2="127.01" xlink:href="#linear-gradient"/>
  </defs>
  <text class="cls-8" transform="translate(161.16 696.06)"><tspan x="0" y="0">رؤيــة الـمستقبل</tspan></text>
  <text class="cls-6" transform="translate(181.84 723.91)"><tspan x="0" y="0">حيـــــث يــجتمـــــع الأمـــــــــن والـتقنيــــــــة</tspan></text>
  <polyline class="cls-22" points="411.52 510.53 398.96 510.41 397.21 508.78 379.55 508.66 416.59 546.98 424.56 538.25 402.05 514.19 411.59 514.17 429.32 533 430.52 531.78"/>
  <polygon class="cls-18" points="467.91 508.83 509.99 550.8 435.4 628.4 382.55 628.4 461.86 552 420.66 508.99 467.91 508.83"/>
  <polygon class="cls-3" points="244.45 508.75 285.68 550.88 211.09 628.48 161.16 628.48 237.56 552.08 195.95 508.91 244.45 508.75"/>
  <polygon class="cls-10" points="328.91 514.66 293.47 550.88 329.11 587.95 353.28 563.77 341.6 552.08 353.28 539.95 328.91 514.66 328.91 514.66"/>
  <polygon class="cls-9" points="288.57 599.58 261.6 628.28 243.95 628.4 280.63 590.44 288.57 599.58"/>
  <polygon class="cls-11" points="214.42 537.47 187.45 508.78 169.8 508.66 206.47 546.61 214.42 537.47"/>
  <polygon class="cls-20" points="161.08 628.4 184.74 605.61 167.65 587.62 203.06 550.62 161.73 508.83 126.89 508.83 119.84 515.62 154.94 551.83 119.26 586.35 161.08 628.4"/>
  <polyline class="cls-15" points="119.84 515.62 84.81 550.62 119.26 586.35 143.99 562.65 132.93 552 143.99 540.45"/>
  <polygon class="cls-12" points="371.87 508.75 413.1 550.88 338.5 628.48 288.57 628.48 364.97 552.08 328.91 514.66 334.7 508.75 371.87 508.75"/>
  <text class="cls-13" transform="translate(157.97 303.15)"><tspan x="0" y="0">رؤيــة الـمستقبل</tspan></text>
  <text class="cls-7" transform="translate(178.78 331.18)"><tspan x="0" y="0">حيـــــث يــجتمـــــع الأمـــــــــن والـتقنيــــــــة</tspan></text>
  <polyline class="cls-16" points="409.95 116.42 397.31 116.3 395.54 114.66 377.77 114.54 415.05 153.11 423.08 144.32 400.42 120.11 410.02 120.09 427.86 139.03 429.07 137.81"/>
  <polygon class="cls-19" points="466.7 114.71 509.05 156.95 433.98 235.05 380.79 235.05 460.62 158.16 419.14 114.87 466.7 114.71"/>
  <polygon class="cls-4" points="241.8 114.63 283.3 157.03 208.22 235.13 157.97 235.13 234.86 158.24 192.99 114.79 241.8 114.63"/>
  <polygon class="cls-17" points="326.81 120.58 291.13 157.03 327 194.34 351.33 170 339.57 158.24 351.33 146.03 326.81 120.58 326.81 120.58"/>
  <polygon class="cls-5" points="286.21 206.05 259.06 234.93 241.29 235.05 278.21 196.85 286.21 206.05"/>
  <polygon class="cls-2" points="211.57 143.54 184.43 114.66 166.66 114.54 203.57 152.74 211.57 143.54"/>
  <polygon class="cls-14" points="157.89 235.05 181.7 212.12 164.5 194.01 200.14 156.78 158.54 114.71 123.48 114.71 116.38 121.54 151.71 157.99 115.79 192.73 157.89 235.05"/>
  <polyline class="cls-1" points="116.38 121.54 81.12 156.77 115.79 192.73 140.69 168.88 129.56 158.16 140.69 146.54"/>
  <polygon class="cls-21" points="370.04 114.63 411.53 157.03 336.46 235.13 286.21 235.13 363.1 158.24 326.81 120.58 332.63 114.63 370.04 114.63"/>
</svg>